<?xml version="1.0" encoding="utf-8"?>
<!-- Generator: Adobe Illustrator 16.0.0, SVG Export Plug-In . SVG Version: 6.00 Build 0)  -->
<!DOCTYPE svg PUBLIC "-//W3C//DTD SVG 1.1//EN" "http://www.w3.org/Graphics/SVG/1.1/DTD/svg11.dtd">
<svg version="1.1" id="Layer_1" xmlns="http://www.w3.org/2000/svg" xmlns:xlink="http://www.w3.org/1999/xlink" x="0px" y="0px"
	 width="2160px" height="2160px" viewBox="0 0 2160 2160" enable-background="new 0 0 2160 2160" xml:space="preserve">
<g>
	<g>
		<g>
			<g>
				<defs>
					<rect id="SVGID_1_" x="600.473" y="386.795" width="108.572" height="108.573"/>
				</defs>
				<clipPath id="SVGID_2_">
					<use xlink:href="#SVGID_1_"  overflow="visible"/>
				</clipPath>
				<polygon clip-path="url(#SVGID_2_)" points="657.322,414.441 673.507,419.165 683.259,432.636 680.846,450.731 663.957,463.699 
					643.751,460.458 632.968,441.534 640.282,422.534 				"/>
			</g>
		</g>
		<g>
			<g>
				<defs>
					<rect id="SVGID_3_" x="600.473" y="386.795" width="108.572" height="108.573"/>
				</defs>
				<clipPath id="SVGID_4_">
					<use xlink:href="#SVGID_3_"  overflow="visible"/>
				</clipPath>
				<polygon clip-path="url(#SVGID_4_)" fill="#FFFFFF" points="644.807,425.473 657.624,419.668 670.667,423.815 678.434,434.521 
					676.473,448.771 662.148,459.854 647.596,456.462 638.172,442.74 				"/>
			</g>
		</g>
	</g>
</g>
<g>
	<g>
		<g>
			<g>
				<defs>
					<rect id="SVGID_5_" x="455.181" y="747.274" width="108.572" height="108.57"/>
				</defs>
				<clipPath id="SVGID_6_">
					<use xlink:href="#SVGID_5_"  overflow="visible"/>
				</clipPath>
				<polygon clip-path="url(#SVGID_6_)" points="512.03,774.92 528.215,779.645 537.967,793.116 535.554,811.211 518.665,824.18 
					498.459,820.938 487.676,802.013 494.99,783.013 				"/>
			</g>
		</g>
		<g>
			<g>
				<defs>
					<rect id="SVGID_7_" x="455.181" y="747.274" width="108.572" height="108.57"/>
				</defs>
				<clipPath id="SVGID_8_">
					<use xlink:href="#SVGID_7_"  overflow="visible"/>
				</clipPath>
				<polygon clip-path="url(#SVGID_8_)" fill="#FFFFFF" points="499.515,785.953 512.332,780.146 525.375,784.294 533.142,795.002 
					531.181,809.251 516.856,820.334 502.304,816.942 492.88,803.218 				"/>
			</g>
		</g>
	</g>
</g>
<g>
	<g>
		<g>
			<g>
				<defs>
					<rect id="SVGID_9_" x="1317.762" y="955.12" width="108.571" height="108.572"/>
				</defs>
				<clipPath id="SVGID_10_">
					<use xlink:href="#SVGID_9_"  overflow="visible"/>
				</clipPath>
				<polygon clip-path="url(#SVGID_10_)" points="1374.61,982.767 1390.796,987.49 1400.547,1000.962 1398.135,1019.057 
					1381.246,1032.025 1361.039,1028.783 1350.258,1009.859 1357.571,990.859 				"/>
			</g>
		</g>
		<g>
			<g>
				<defs>
					<rect id="SVGID_11_" x="1317.762" y="955.12" width="108.571" height="108.572"/>
				</defs>
				<clipPath id="SVGID_12_">
					<use xlink:href="#SVGID_11_"  overflow="visible"/>
				</clipPath>
				<polygon clip-path="url(#SVGID_12_)" fill="#FFFFFF" points="1362.095,993.799 1374.913,987.994 1387.956,992.141 
					1395.722,1002.846 1393.762,1017.097 1379.438,1028.18 1364.885,1024.787 1355.46,1011.064 				"/>
			</g>
		</g>
	</g>
</g>
<g>
	<g>
		<g>
			<g>
				<defs>
					<rect id="SVGID_13_" x="1618.854" y="1807.776" width="108.571" height="108.571"/>
				</defs>
				<clipPath id="SVGID_14_">
					<use xlink:href="#SVGID_13_"  overflow="visible"/>
				</clipPath>
				<polygon clip-path="url(#SVGID_14_)" points="1675.704,1835.422 1691.889,1840.146 1701.641,1853.617 1699.229,1871.713 
					1682.34,1884.682 1662.133,1881.439 1651.351,1862.515 1658.664,1843.514 				"/>
			</g>
		</g>
		<g>
			<g>
				<defs>
					<rect id="SVGID_15_" x="1618.854" y="1807.776" width="108.571" height="108.571"/>
				</defs>
				<clipPath id="SVGID_16_">
					<use xlink:href="#SVGID_15_"  overflow="visible"/>
				</clipPath>
				<polygon clip-path="url(#SVGID_16_)" fill="#FFFFFF" points="1663.188,1846.454 1676.006,1840.649 1689.049,1844.797 
					1696.814,1855.503 1694.855,1869.753 1680.529,1880.836 1665.979,1877.442 1656.554,1863.721 				"/>
			</g>
		</g>
	</g>
</g>
<g>
	<g>
		<g>
			<g>
				<defs>
					<rect id="SVGID_17_" x="1468.725" y="1824.165" width="108.571" height="108.573"/>
				</defs>
				<clipPath id="SVGID_18_">
					<use xlink:href="#SVGID_17_"  overflow="visible"/>
				</clipPath>
				<polygon clip-path="url(#SVGID_18_)" points="1525.573,1851.813 1541.759,1856.535 1551.51,1870.007 1549.098,1888.104 
					1532.209,1901.071 1512.002,1897.829 1501.221,1878.904 1508.534,1859.903 				"/>
			</g>
		</g>
		<g>
			<g>
				<defs>
					<rect id="SVGID_19_" x="1468.725" y="1824.165" width="108.571" height="108.573"/>
				</defs>
				<clipPath id="SVGID_20_">
					<use xlink:href="#SVGID_19_"  overflow="visible"/>
				</clipPath>
				<polygon clip-path="url(#SVGID_20_)" fill="#FFFFFF" points="1513.058,1862.844 1525.876,1857.039 1538.919,1861.186 
					1546.686,1871.893 1544.725,1886.142 1530.399,1897.225 1515.848,1893.831 1506.423,1880.11 				"/>
			</g>
		</g>
	</g>
</g>
<g>
	<g>
		<g>
			<g>
				<defs>
					<rect id="SVGID_21_" x="1027.27" y="1547.72" width="86.074" height="86.074"/>
				</defs>
				<clipPath id="SVGID_22_">
					<use xlink:href="#SVGID_21_"  overflow="visible"/>
				</clipPath>
				<polygon clip-path="url(#SVGID_22_)" points="1063.128,1553.534 1110.316,1569.137 1110.316,1605.469 1076.771,1628.986 
					1037.574,1616.323 1029.66,1584.438 				"/>
			</g>
		</g>
		<g>
			<g>
				<defs>
					<rect id="SVGID_23_" x="1027.27" y="1547.72" width="86.074" height="86.074"/>
				</defs>
				<clipPath id="SVGID_24_">
					<use xlink:href="#SVGID_23_"  overflow="visible"/>
				</clipPath>
				<polygon clip-path="url(#SVGID_24_)" fill="#FFFFFF" points="1048.202,1573.811 1058.755,1579.464 1047.826,1589.113 
					1054.007,1616.701 1041.192,1612.329 1035.313,1586.701 				"/>
			</g>
		</g>
		<g>
			<g>
				<defs>
					<rect id="SVGID_25_" x="1027.27" y="1547.72" width="86.074" height="86.074"/>
				</defs>
				<clipPath id="SVGID_26_">
					<use xlink:href="#SVGID_25_"  overflow="visible"/>
				</clipPath>
				<polygon clip-path="url(#SVGID_26_)" fill="#FFFFFF" points="1088.682,1598.083 1103.682,1604.942 1076.545,1623.561 
					1062.45,1618.736 1060.564,1605.847 1072.399,1611.425 				"/>
			</g>
		</g>
		<g>
			<g>
				<defs>
					<rect id="SVGID_27_" x="1027.27" y="1547.72" width="86.074" height="86.074"/>
				</defs>
				<clipPath id="SVGID_28_">
					<use xlink:href="#SVGID_27_"  overflow="visible"/>
				</clipPath>
				<polygon clip-path="url(#SVGID_28_)" fill="#FFFFFF" points="1064.561,1558.811 1055.213,1567.479 1090.264,1578.711 
					1090.188,1591.299 1105.34,1596.649 1105.557,1571.341 				"/>
			</g>
		</g>
		<g>
			<g>
				<defs>
					<rect id="SVGID_29_" x="1027.27" y="1547.72" width="86.074" height="86.074"/>
				</defs>
				<clipPath id="SVGID_30_">
					<use xlink:href="#SVGID_29_"  overflow="visible"/>
				</clipPath>
				<g clip-path="url(#SVGID_30_)">
					<g>
						<g>
							<defs>
								<rect id="SVGID_31_" x="1027.27" y="1547.72" width="86.074" height="86.074"/>
							</defs>
							<clipPath id="SVGID_32_">
								<use xlink:href="#SVGID_31_"  overflow="visible"/>
							</clipPath>
							<path clip-path="url(#SVGID_32_)" fill="#FFFFFF" d="M1081.444,1590.922c0-5.704-4.624-10.327-10.326-10.327
								c-5.703,0-10.326,4.623-10.326,10.327c0,5.702,4.624,10.328,10.326,10.328S1081.444,1596.624,1081.444,1590.922"/>
						</g>
					</g>
				</g>
				<g clip-path="url(#SVGID_30_)">
					<g>
						<g>
							<g>
								<defs>
									<rect id="SVGID_33_" x="284.791" y="534.174" width="86.075" height="86.074"/>
								</defs>
								<clipPath id="SVGID_34_">
									<use xlink:href="#SVGID_33_"  overflow="visible"/>
								</clipPath>
								<polygon clip-path="url(#SVGID_34_)" points="320.65,539.987 367.836,555.591 367.836,591.923 334.292,615.44 
									295.095,602.776 287.182,570.892 								"/>
							</g>
						</g>
						<g>
							<g>
								<defs>
									<rect id="SVGID_35_" x="284.791" y="534.174" width="86.075" height="86.074"/>
								</defs>
								<clipPath id="SVGID_36_">
									<use xlink:href="#SVGID_35_"  overflow="visible"/>
								</clipPath>
								<polygon clip-path="url(#SVGID_36_)" fill="#FFFFFF" points="305.724,560.265 316.277,565.918 305.348,575.567 
									311.528,603.154 298.714,598.783 292.834,573.155 								"/>
							</g>
						</g>
						<g>
							<g>
								<defs>
									<rect id="SVGID_37_" x="284.791" y="534.174" width="86.075" height="86.074"/>
								</defs>
								<clipPath id="SVGID_38_">
									<use xlink:href="#SVGID_37_"  overflow="visible"/>
								</clipPath>
								<polygon clip-path="url(#SVGID_38_)" fill="#FFFFFF" points="346.203,584.537 361.204,591.396 334.066,610.015 
									319.971,605.19 318.086,592.3 329.92,597.878 								"/>
							</g>
						</g>
						<g>
							<g>
								<defs>
									<rect id="SVGID_39_" x="284.791" y="534.174" width="86.075" height="86.074"/>
								</defs>
								<clipPath id="SVGID_40_">
									<use xlink:href="#SVGID_39_"  overflow="visible"/>
								</clipPath>
								<polygon clip-path="url(#SVGID_40_)" fill="#FFFFFF" points="322.081,545.264 312.734,553.933 347.786,565.164 
									347.71,577.752 362.861,583.104 363.078,557.794 								"/>
							</g>
						</g>
						<g>
							<g>
								<defs>
									<rect id="SVGID_41_" x="284.791" y="534.174" width="86.075" height="86.074"/>
								</defs>
								<clipPath id="SVGID_42_">
									<use xlink:href="#SVGID_41_"  overflow="visible"/>
								</clipPath>
								<g clip-path="url(#SVGID_42_)">
									<g>
										<g>
											<defs>
												<rect id="SVGID_43_" x="284.791" y="534.174" width="86.075" height="86.074"/>
											</defs>
											<clipPath id="SVGID_44_">
												<use xlink:href="#SVGID_43_"  overflow="visible"/>
											</clipPath>
											<path clip-path="url(#SVGID_44_)" fill="#FFFFFF" d="M338.966,577.376c0-5.703-4.624-10.327-10.327-10.327
												c-5.701,0-10.325,4.624-10.325,10.327s4.625,10.327,10.325,10.327C334.342,587.703,338.966,583.078,338.966,577.376"/>
										</g>
									</g>
								</g>
								<g clip-path="url(#SVGID_42_)">
									<g>
										<g>
											<g>
												<defs>
													<rect id="SVGID_45_" x="1096.912" y="254.684" width="87.91" height="87.91"/>
												</defs>
												<clipPath id="SVGID_46_">
													<use xlink:href="#SVGID_45_"  overflow="visible"/>
												</clipPath>
												<polygon clip-path="url(#SVGID_46_)" points="1133.536,260.621 1181.729,276.556 1181.729,313.665 1147.471,337.684 
													1107.438,324.749 1099.354,292.186 												"/>
											</g>
										</g>
										<g>
											<g>
												<defs>
													<rect id="SVGID_47_" x="1096.912" y="254.684" width="87.91" height="87.91"/>
												</defs>
												<clipPath id="SVGID_48_">
													<use xlink:href="#SVGID_47_"  overflow="visible"/>
												</clipPath>
												<polygon clip-path="url(#SVGID_48_)" fill="#FFFFFF" points="1118.292,281.331 1129.071,287.104 1117.907,296.959 
													1124.221,325.136 1111.133,320.671 1105.127,294.496 												"/>
											</g>
										</g>
										<g>
											<g>
												<defs>
													<rect id="SVGID_49_" x="1096.912" y="254.684" width="87.91" height="87.91"/>
												</defs>
												<clipPath id="SVGID_50_">
													<use xlink:href="#SVGID_49_"  overflow="visible"/>
												</clipPath>
												<polygon clip-path="url(#SVGID_50_)" fill="#FFFFFF" points="1159.635,306.12 1174.954,313.126 1147.239,332.142 
													1132.843,327.214 1130.918,314.05 1143.005,319.747 												"/>
											</g>
										</g>
										<g>
											<g>
												<defs>
													<rect id="SVGID_51_" x="1096.912" y="254.684" width="87.91" height="87.91"/>
												</defs>
												<clipPath id="SVGID_52_">
													<use xlink:href="#SVGID_51_"  overflow="visible"/>
												</clipPath>
												<polygon clip-path="url(#SVGID_52_)" fill="#FFFFFF" points="1134.998,266.01 1125.452,274.864 1161.251,286.335 
													1161.174,299.192 1176.648,304.658 1176.869,278.808 												"/>
											</g>
										</g>
										<g>
											<g>
												<defs>
													<rect id="SVGID_53_" x="1096.912" y="254.684" width="87.91" height="87.91"/>
												</defs>
												<clipPath id="SVGID_54_">
													<use xlink:href="#SVGID_53_"  overflow="visible"/>
												</clipPath>
												<g clip-path="url(#SVGID_54_)">
													<g>
														<g>
															<defs>
																<rect id="SVGID_55_" x="1096.912" y="254.684" width="87.91" height="87.91"/>
															</defs>
															<clipPath id="SVGID_56_">
																<use xlink:href="#SVGID_55_"  overflow="visible"/>
															</clipPath>
															<path clip-path="url(#SVGID_56_)" fill="#FFFFFF" d="M1152.243,298.807c0-5.825-4.722-10.547-10.547-10.547
																c-5.824,0-10.548,4.722-10.548,10.547c0,5.825,4.724,10.548,10.548,10.548
																C1147.521,309.354,1152.243,304.632,1152.243,298.807"/>
														</g>
													</g>
												</g>
											</g>
										</g>
									</g>
								</g>
							</g>
						</g>
					</g>
				</g>
			</g>
		</g>
	</g>
</g>
<g>
	<g>
		<g>
			<g>
				<defs>
					<rect id="SVGID_57_" x="1096.041" y="253.907" width="88.959" height="88.959"/>
				</defs>
				<clipPath id="SVGID_58_">
					<use xlink:href="#SVGID_57_"  overflow="visible"/>
				</clipPath>
				<polygon clip-path="url(#SVGID_58_)" points="1133.102,259.916 1181.871,276.042 1181.871,313.591 1147.202,337.897 
					1106.691,324.81 1098.512,291.855 				"/>
			</g>
		</g>
		<g>
			<g>
				<defs>
					<rect id="SVGID_59_" x="1096.041" y="253.907" width="88.959" height="88.959"/>
				</defs>
				<clipPath id="SVGID_60_">
					<use xlink:href="#SVGID_59_"  overflow="visible"/>
				</clipPath>
				<polygon clip-path="url(#SVGID_60_)" fill="#FFFFFF" points="1117.675,280.872 1128.582,286.715 1117.287,296.688 
					1123.675,325.2 1110.431,320.682 1104.354,294.195 				"/>
			</g>
		</g>
		<g>
			<g>
				<defs>
					<rect id="SVGID_61_" x="1096.041" y="253.907" width="88.959" height="88.959"/>
				</defs>
				<clipPath id="SVGID_62_">
					<use xlink:href="#SVGID_61_"  overflow="visible"/>
				</clipPath>
				<polygon clip-path="url(#SVGID_62_)" fill="#FFFFFF" points="1159.512,305.958 1175.014,313.047 1146.968,332.29 
					1132.4,327.304 1130.452,313.982 1142.684,319.747 				"/>
			</g>
		</g>
		<g>
			<g>
				<defs>
					<rect id="SVGID_63_" x="1096.041" y="253.907" width="88.959" height="88.959"/>
				</defs>
				<clipPath id="SVGID_64_">
					<use xlink:href="#SVGID_63_"  overflow="visible"/>
				</clipPath>
				<polygon clip-path="url(#SVGID_64_)" fill="#FFFFFF" points="1134.582,265.369 1124.921,274.328 1161.146,285.937 
					1161.067,298.946 1176.728,304.477 1176.952,278.319 				"/>
			</g>
		</g>
		<g>
			<g>
				<defs>
					<rect id="SVGID_65_" x="1096.041" y="253.907" width="88.959" height="88.959"/>
				</defs>
				<clipPath id="SVGID_66_">
					<use xlink:href="#SVGID_65_"  overflow="visible"/>
				</clipPath>
				<g clip-path="url(#SVGID_66_)">
					<g>
						<g>
							<defs>
								<rect id="SVGID_67_" x="1096.041" y="253.907" width="88.959" height="88.959"/>
							</defs>
							<clipPath id="SVGID_68_">
								<use xlink:href="#SVGID_67_"  overflow="visible"/>
							</clipPath>
							<path clip-path="url(#SVGID_68_)" fill="#FFFFFF" d="M1152.031,298.557c0-5.895-4.778-10.673-10.672-10.673
								c-5.895,0-10.673,4.778-10.673,10.673c0,5.894,4.779,10.674,10.673,10.674S1152.031,304.45,1152.031,298.557"/>
						</g>
					</g>
				</g>
			</g>
		</g>
	</g>
</g>
<g>
	<g>
		<g>
			<g>
				<defs>
					<rect id="SVGID_93_" x="282.44" y="532.953" width="88.959" height="88.959"/>
				</defs>
				<clipPath id="SVGID_70_">
					<use xlink:href="#SVGID_93_"  overflow="visible"/>
				</clipPath>
				<polygon clip-path="url(#SVGID_70_)" points="319.501,538.962 368.271,555.087 368.271,592.638 333.602,616.943 
					293.091,603.856 284.911,570.902 				"/>
			</g>
		</g>
		<g>
			<g>
				<defs>
					<rect id="SVGID_95_" x="282.44" y="532.953" width="88.959" height="88.959"/>
				</defs>
				<clipPath id="SVGID_72_">
					<use xlink:href="#SVGID_95_"  overflow="visible"/>
				</clipPath>
				<polygon clip-path="url(#SVGID_72_)" fill="#FFFFFF" points="304.074,559.918 314.981,565.761 303.687,575.734 310.074,604.247 
					296.83,599.728 290.753,573.242 				"/>
			</g>
		</g>
		<g>
			<g>
				<defs>
					<rect id="SVGID_97_" x="282.44" y="532.953" width="88.959" height="88.959"/>
				</defs>
				<clipPath id="SVGID_74_">
					<use xlink:href="#SVGID_97_"  overflow="visible"/>
				</clipPath>
				<polygon clip-path="url(#SVGID_74_)" fill="#FFFFFF" points="345.911,585.004 361.413,592.093 333.367,611.335 318.8,606.35 
					316.852,593.029 329.083,598.793 				"/>
			</g>
		</g>
		<g>
			<g>
				<defs>
					<rect id="SVGID_99_" x="282.44" y="532.953" width="88.959" height="88.959"/>
				</defs>
				<clipPath id="SVGID_76_">
					<use xlink:href="#SVGID_99_"  overflow="visible"/>
				</clipPath>
				<polygon clip-path="url(#SVGID_76_)" fill="#FFFFFF" points="320.981,544.416 311.32,553.375 347.546,564.983 347.467,577.993 
					363.127,583.523 363.352,557.366 				"/>
			</g>
		</g>
		<g>
			<g>
				<defs>
					<rect id="SVGID_101_" x="282.44" y="532.953" width="88.959" height="88.959"/>
				</defs>
				<clipPath id="SVGID_78_">
					<use xlink:href="#SVGID_101_"  overflow="visible"/>
				</clipPath>
				<g clip-path="url(#SVGID_78_)">
					<g>
						<g>
							<defs>
								<rect id="SVGID_103_" x="282.44" y="532.953" width="88.959" height="88.959"/>
							</defs>
							<clipPath id="SVGID_80_">
								<use xlink:href="#SVGID_103_"  overflow="visible"/>
							</clipPath>
							<path clip-path="url(#SVGID_80_)" fill="#FFFFFF" d="M338.431,577.603c0-5.895-4.778-10.673-10.672-10.673
								c-5.895,0-10.673,4.778-10.673,10.673c0,5.894,4.779,10.674,10.673,10.674S338.431,583.497,338.431,577.603"/>
						</g>
					</g>
				</g>
			</g>
		</g>
	</g>
</g>
</svg>
